<?xml version="1.0" standalone="no"?>
<!DOCTYPE svg PUBLIC "-//W3C//DTD SVG 20010904//EN"
 "http://www.w3.org/TR/2001/REC-SVG-20010904/DTD/svg10.dtd">
<svg version="1.0" xmlns="http://www.w3.org/2000/svg"
 width="512.000000pt" height="512.000000pt" viewBox="0 0 512.000000 512.000000"
 preserveAspectRatio="xMidYMid meet">

<g transform="translate(0.000000,512.000000) scale(0.100000,-0.100000)"
fill="#000000" stroke="none">
<path d="M2489 5111 c-42 -14 -54 -21 -712 -439 -486 -308 -641 -411 -649
-431 -13 -36 12 -88 49 -97 21 -6 41 0 85 25 l58 32 0 -116 0 -115 -347 0
c-359 0 -402 -4 -456 -42 -67 -48 -74 -68 -153 -419 -76 -339 -84 -405 -61
-462 18 -42 85 -101 131 -117 l36 -12 0 -224 0 -224 -113 0 c-153 0 -204 -16
-272 -83 -79 -80 -108 -186 -64 -241 42 -54 129 -18 129 53 0 14 9 41 20 59
36 58 58 62 368 62 278 0 279 0 300 23 31 33 29 80 -4 106 -23 18 -41 21 -120
21 l-94 0 0 225 0 225 350 0 350 0 0 -225 0 -225 -105 0 c-99 0 -107 -2 -130
-25 -32 -31 -32 -69 0 -100 l24 -25 1876 0 c2033 0 1923 3 1960 -53 9 -14 19
-42 22 -63 12 -80 88 -113 132 -58 65 82 -38 269 -169 308 -35 11 -93 16 -167
16 l-113 0 0 224 0 223 44 17 c47 18 110 79 126 122 20 51 9 127 -64 453 -79
351 -86 371 -153 419 -54 38 -97 42 -455 42 l-348 0 0 115 c0 63 2 115 5 115
2 0 26 -13 52 -30 49 -32 73 -36 102 -20 27 14 44 61 32 92 -7 19 -164 124
-628 419 -340 216 -642 406 -671 422 -57 31 -153 44 -203 28z m637 -479 l519
-330 3 -166 2 -166 -268 0 -269 0 -198 125 c-270 172 -265 170 -355 170 -90 0
-89 0 -357 -171 l-195 -124 -269 0 -269 0 0 164 0 165 507 322 c278 177 518
328 532 336 56 30 77 19 617 -325z m-35 -827 c266 -169 495 -317 507 -329 53
-47 52 -41 52 -541 l0 -465 -180 0 -180 0 0 245 0 246 -25 24 -24 25 -681 0
-681 0 -24 -25 -25 -24 0 -246 0 -245 -180 0 -180 0 0 465 c0 500 -1 494 52
541 23 21 969 625 998 637 48 20 88 -1 571 -308z m-1334 8 c-4 -4 -85 -56
-179 -117 -139 -90 -178 -120 -204 -159 -48 -70 -54 -102 -54 -294 l0 -173
-418 0 c-459 0 -462 0 -462 59 0 30 135 645 146 662 3 6 16 14 28 19 25 10
1153 13 1143 3z m2768 -13 c15 -16 155 -619 155 -671 0 -59 -3 -59 -461 -59
l-417 0 -4 193 c-3 178 -5 195 -26 235 -36 67 -86 110 -255 215 -86 54 -157
101 -157 103 0 2 259 3 575 2 499 -3 576 -5 590 -18z m-25 -1105 l0 -225 -350
0 -350 0 0 225 0 225 350 0 350 0 0 -225z m-2020 65 l0 -100 -245 0 -245 0 0
100 0 100 245 0 245 0 0 -100z m650 0 l0 -100 -245 0 -245 0 0 100 0 100 245
0 245 0 0 -100z"/>
<path d="M21 1904 c-20 -25 -21 -40 -21 -214 0 -235 12 -276 103 -336 95 -62
217 -51 303 28 66 61 76 105 72 327 -3 159 -5 181 -22 200 -25 27 -79 28 -106
1 -19 -19 -20 -33 -20 -201 0 -110 -4 -188 -11 -201 -14 -26 -74 -51 -102 -42
-12 3 -32 16 -44 27 -22 20 -23 26 -23 207 0 182 -1 187 -23 208 -33 31 -80
29 -106 -4z"/>
<path d="M651 1904 c-20 -25 -21 -39 -21 -284 0 -237 2 -260 19 -281 13 -16
29 -23 55 -23 62 0 70 17 76 164 l5 130 90 -131 c50 -72 99 -137 110 -145 30
-22 73 -17 101 11 l25 25 -3 261 c-3 260 -3 261 -27 280 -30 24 -72 24 -102 0
-23 -18 -23 -23 -21 -150 2 -72 1 -131 -1 -131 -2 0 -37 48 -77 108 -117 171
-136 192 -175 192 -24 0 -39 -7 -54 -26z"/>
<path d="M1292 1907 c-21 -23 -22 -30 -22 -283 0 -281 2 -295 55 -308 29 -7
79 15 89 39 3 9 6 130 6 269 0 241 -1 255 -21 280 -27 34 -77 36 -107 3z"/>
<path d="M1571 1904 c-12 -15 -21 -34 -21 -43 0 -30 171 -506 188 -523 9 -10
31 -20 48 -24 26 -5 37 -1 62 23 25 23 43 68 110 271 69 210 79 248 70 273
-17 50 -81 66 -117 30 -10 -10 -40 -82 -66 -160 -25 -77 -48 -141 -50 -141 -1
0 -24 62 -50 138 -27 75 -57 147 -68 160 -29 32 -79 30 -106 -4z"/>
<path d="M2201 1911 c-29 -29 -33 -65 -29 -319 4 -289 -4 -275 156 -280 126
-5 177 10 188 52 17 69 -28 106 -131 106 l-55 0 0 40 0 40 61 0 c33 0 69 5 80
11 29 15 42 57 29 90 -15 35 -48 49 -115 49 l-55 0 0 40 0 40 70 0 c62 0 74 3
95 25 32 31 33 74 2 103 -21 20 -34 22 -150 22 -112 0 -129 -2 -146 -19z"/>
<path d="M2710 1910 c-19 -19 -20 -33 -20 -285 l0 -266 25 -24 c27 -28 42 -30
79 -14 31 14 38 29 45 97 l6 52 60 -70 c33 -38 72 -74 86 -80 31 -13 73 0 88
29 22 40 12 69 -48 138 l-59 67 26 17 c107 66 123 222 30 305 -48 45 -82 54
-193 54 -92 0 -108 -3 -125 -20z m218 -142 c32 -32 0 -78 -54 -78 -34 0 -34 0
-34 45 l0 45 38 0 c21 0 43 -5 50 -12z"/>
<path d="M3355 1911 c-82 -37 -128 -128 -105 -205 19 -64 72 -109 167 -140 85
-28 109 -45 99 -71 -16 -43 -108 -37 -164 10 -38 32 -82 32 -110 2 -47 -50
-13 -116 85 -163 159 -78 343 7 343 158 0 99 -53 156 -188 202 -93 32 -94 33
-82 57 15 27 66 25 130 -5 58 -27 82 -24 110 12 26 32 25 53 -2 87 -53 68
-196 96 -283 56z"/>
<path d="M3850 1910 c-19 -19 -20 -33 -20 -289 l0 -270 26 -20 c36 -29 60 -26
95 9 l30 29 -3 260 c-3 238 -5 261 -22 280 -25 27 -79 28 -106 1z"/>
<path d="M4141 1904 c-28 -36 -26 -60 8 -95 22 -21 39 -29 65 -29 l36 0 0
-200 c0 -127 4 -208 11 -224 23 -51 103 -55 128 -7 7 12 11 100 11 225 l0 206
39 0 c78 0 122 79 71 130 -18 18 -33 20 -184 20 l-165 0 -20 -26z"/>
<path d="M4691 1904 c-12 -15 -21 -36 -21 -47 0 -11 34 -72 75 -136 l75 -117
0 -121 c0 -143 11 -167 75 -167 64 0 75 24 75 166 l0 121 75 116 c41 65 75
126 75 138 0 36 -38 73 -74 73 -37 0 -55 -16 -111 -102 -21 -32 -39 -58 -41
-58 -1 0 -20 29 -42 63 -53 84 -67 97 -107 97 -24 0 -39 -7 -54 -26z"/>
<path d="M23 1104 c-23 -23 -25 -31 -20 -79 7 -65 34 -119 84 -166 53 -51 97
-71 170 -77 35 -2 63 -6 63 -8 0 -2 -16 -26 -36 -53 -65 -92 -77 -143 -82
-350 -3 -153 -1 -190 13 -226 24 -63 52 -94 109 -121 l51 -24 1533 0 1533 0
24 25 c32 31 32 69 0 100 l-24 25 -1524 0 -1524 0 -21 23 c-19 20 -22 35 -22
100 l0 77 2210 0 2210 0 0 -78 c0 -69 -3 -81 -23 -100 -23 -22 -24 -22 -518
-22 l-496 0 -21 -23 c-31 -33 -29 -80 4 -106 26 -21 36 -21 528 -21 l501 0 51
24 c57 27 85 58 109 121 14 36 16 73 13 226 -5 207 -17 258 -82 350 -20 27
-36 51 -36 53 0 2 28 6 63 8 74 6 128 32 178 85 49 51 70 94 76 158 5 48 3 56
-20 79 -15 15 -37 26 -52 26 -33 0 -75 -42 -75 -75 0 -39 -27 -83 -63 -105
-31 -20 -69 -20 -2345 -20 -2069 0 -2316 2 -2343 15 -36 19 -69 70 -69 108 0
35 -41 77 -75 77 -15 0 -37 -11 -52 -26z m4539 -347 c91 -36 198 -162 198
-234 l0 -23 -2200 0 -2200 0 0 23 c1 57 75 164 144 207 83 51 -6 49 2076 47
1853 -2 1937 -3 1982 -20z"/>
</g>
</svg>
